<?xml version="1.0" standalone="no"?>
<!DOCTYPE svg PUBLIC "-//W3C//DTD SVG 20010904//EN"
 "http://www.w3.org/TR/2001/REC-SVG-20010904/DTD/svg10.dtd">
<svg version="1.0" xmlns="http://www.w3.org/2000/svg"
 width="200.000000pt" height="200.000000pt" viewBox="0 0 200.000000 200.000000"
 preserveAspectRatio="xMidYMid meet">

<g transform="translate(0.000000,200.000000) scale(0.100000,-0.100000)"
fill="#000000" stroke="none">
<path d="M957 1734 c-21 -23 -42 -56 -47 -73 -10 -37 5 -91 25 -91 19 0 30 21
16 29 -16 10 6 68 31 82 15 8 24 7 39 -7 10 -9 19 -25 19 -34 0 -9 6 -22 13
-29 10 -11 9 -13 -5 -8 -22 8 -23 -6 -2 -24 14 -11 18 -10 30 6 31 42 12 106
-48 161 l-33 31 -38 -43z"/>
<path d="M813 1670 c-107 -38 -246 -127 -215 -138 8 -2 28 -19 46 -37 18 -18
39 -34 46 -37 10 -3 9 -9 -6 -26 -19 -23 -58 -30 -69 -12 -10 17 -25 11 -25
-9 0 -11 10 -27 22 -35 12 -9 19 -19 15 -22 -12 -12 -47 28 -47 55 0 14 12 38
28 54 26 28 27 29 8 43 -11 8 -29 14 -40 14 -12 0 -31 3 -42 6 -21 5 -21 4
-12 -38 5 -23 10 -57 11 -75 3 -39 32 -73 64 -73 27 0 29 -8 8 -24 -14 -11
-40 -114 -30 -124 14 -14 33 12 39 55 13 102 109 215 232 274 61 29 74 41 55
53 -9 6 -144 -65 -173 -91 -12 -10 -18 -12 -18 -4 0 6 -10 25 -22 41 l-21 29
24 20 c13 11 52 33 87 48 34 15 62 33 62 40 0 7 5 13 10 13 6 0 10 -4 10 -10
0 -5 7 -10 15 -10 8 0 15 9 15 20 0 24 -9 24 -77 0z m-233 -194 c0 -3 -4 -8
-10 -11 -5 -3 -10 -1 -10 4 0 6 5 11 10 11 6 0 10 -2 10 -4z"/>
<path d="M1100 1675 c0 -19 32 -33 38 -17 2 7 8 12 13 12 4 0 7 -6 4 -12 -2
-8 29 -29 78 -53 45 -22 83 -47 84 -55 2 -8 -8 -28 -22 -45 -22 -27 -25 -28
-42 -13 -14 12 -97 59 -154 86 -4 1 -9 -3 -12 -11 -4 -10 18 -26 71 -53 125
-62 214 -173 229 -285 6 -45 33 -55 33 -13 0 43 -22 104 -37 104 -8 0 -11 5
-8 10 3 6 16 10 29 10 32 0 58 32 55 67 -2 15 2 38 9 50 7 12 12 33 12 47 0
23 -3 24 -37 19 -21 -3 -48 -12 -60 -19 l-22 -14 29 -32 c17 -18 30 -40 30
-50 0 -21 -34 -58 -52 -57 -7 0 -3 7 10 16 12 9 22 26 22 39 0 23 -1 24 -24 9
-22 -15 -26 -14 -52 10 -27 23 -28 26 -11 36 10 6 30 24 44 40 15 16 33 29 41
29 43 0 -103 98 -201 135 -78 29 -97 31 -97 10z m340 -199 c0 -3 -4 -8 -10
-11 -5 -3 -10 -1 -10 4 0 6 5 11 10 11 6 0 10 -2 10 -4z"/>
<path d="M977 1664 c-4 -4 -7 -16 -7 -27 0 -15 3 -17 13 -8 10 8 17 7 25 -1
16 -16 29 -1 16 20 -12 19 -36 27 -47 16z"/>
<path d="M837 1624 c-3 -5 0 -20 7 -33 7 -13 16 -20 19 -15 3 5 0 20 -7 33 -7
13 -16 20 -19 15z"/>
<path d="M870 1615 c0 -8 5 -15 10 -15 6 0 10 7 10 15 0 8 -4 15 -10 15 -5 0
-10 -7 -10 -15z"/>
<path d="M1106 1615 c-3 -8 -1 -15 4 -15 6 0 10 7 10 15 0 8 -2 15 -4 15 -2 0
-6 -7 -10 -15z"/>
<path d="M1136 1604 c-4 -9 -4 -19 -2 -21 8 -8 26 8 26 23 0 19 -16 18 -24 -2z"/>
<path d="M800 1598 c0 -19 18 -43 25 -36 9 9 -4 48 -16 48 -5 0 -9 -6 -9 -12z"/>
<path d="M971 1578 c-13 -16 -62 -48 -109 -71 -111 -54 -181 -121 -210 -200
-23 -62 -28 -107 -12 -107 6 0 10 12 10 28 0 35 32 105 66 146 40 47 108 92
185 121 40 16 74 35 80 47 11 20 11 19 39 -7 15 -14 49 -33 75 -41 124 -37
229 -145 250 -257 8 -39 25 -51 25 -17 0 44 -43 132 -91 184 -36 40 -72 65
-137 97 -48 23 -100 57 -117 74 l-30 32 -24 -29z"/>
<path d="M1170 1589 c-7 -11 -9 -24 -5 -27 7 -7 35 25 35 40 0 16 -19 8 -30
-13z"/>
<path d="M765 1591 c-3 -6 0 -20 8 -32 9 -13 17 -16 22 -10 3 6 0 20 -8 32 -9
13 -17 16 -22 10z"/>
<path d="M1213 1587 c-19 -24 -23 -36 -14 -41 5 -3 16 5 25 19 16 24 6 45 -11
22z"/>
<path d="M727 1574 c-3 -5 3 -20 12 -33 11 -14 21 -19 25 -13 3 5 -2 20 -12
33 -11 12 -21 18 -25 13z"/>
<path d="M1242 1559 c-15 -23 -15 -29 -2 -29 13 0 32 38 22 44 -4 2 -13 -4
-20 -15z"/>
<path d="M697 1554 c-3 -5 3 -20 12 -33 11 -14 21 -19 25 -13 3 5 -2 20 -12
33 -11 12 -21 18 -25 13z"/>
<path d="M1272 1540 c-19 -31 -14 -45 8 -25 20 18 27 45 12 45 -4 0 -13 -9
-20 -20z"/>
<path d="M970 1503 c-18 -16 -20 -23 -9 -23 8 0 20 5 27 12 9 9 15 9 24 0 7
-7 16 -12 20 -12 15 0 8 15 -15 31 -21 15 -24 14 -47 -8z"/>
<path d="M621 1445 c5 -25 42 -27 47 -2 2 9 -1 17 -7 17 -6 0 -11 -5 -11 -11
0 -8 -6 -7 -16 2 -14 12 -16 11 -13 -6z"/>
<path d="M1331 1445 c5 -25 42 -27 47 -2 2 9 -1 17 -7 17 -6 0 -11 -5 -11 -11
0 -8 -6 -7 -16 2 -14 12 -16 11 -13 -6z"/>
<path d="M865 1440 c3 -5 8 -10 11 -10 2 0 4 5 4 10 0 6 -5 10 -11 10 -5 0 -7
-4 -4 -10z"/>
<path d="M922 1437 c-50 -60 0 -157 82 -157 39 0 87 48 88 88 1 38 -20 82 -39
82 -17 0 -17 -15 2 -30 25 -21 19 -76 -11 -99 -36 -28 -60 -26 -95 8 -33 33
-35 45 -14 85 8 15 15 30 15 32 0 9 -18 3 -28 -9z"/>
<path d="M985 1441 c-6 -11 9 -23 19 -14 9 9 7 23 -3 23 -6 0 -12 -4 -16 -9z"/>
<path d="M1115 1440 c3 -5 8 -10 11 -10 2 0 4 5 4 10 0 6 -5 10 -11 10 -5 0
-7 -4 -4 -10z"/>
<path d="M1150 1436 c0 -8 -6 -17 -12 -19 -10 -4 -10 -8 -2 -14 6 -4 15 -23
19 -41 8 -40 45 -67 79 -58 29 7 43 41 26 61 -14 17 -50 20 -50 5 0 -5 9 -10
21 -10 26 0 22 -33 -4 -38 -32 -6 -57 27 -57 74 0 24 -4 46 -10 49 -5 3 -10 0
-10 -9z"/>
<path d="M1477 1438 c-3 -9 5 -38 18 -65 43 -94 43 -93 -15 -93 -63 0 -65 -23
-3 -26 23 -1 55 -5 72 -9 39 -8 40 3 6 87 -31 77 -69 129 -78 106z"/>
<path d="M486 1418 c-21 -33 -64 -128 -72 -162 -6 -25 -5 -27 12 -18 11 5 43
12 73 15 77 8 90 27 18 27 -31 0 -57 2 -57 5 0 3 14 32 30 65 31 61 37 90 20
90 -5 0 -16 -10 -24 -22z"/>
<path d="M830 1403 c0 -48 -24 -85 -53 -81 -31 4 -34 35 -5 40 20 4 21 5 6 12
-29 13 -50 -1 -46 -31 2 -20 11 -30 32 -38 25 -8 31 -6 52 18 13 16 24 39 24
52 0 13 6 25 12 27 9 3 8 9 -5 22 -16 17 -17 16 -17 -21z"/>
<path d="M950 1399 c0 -5 7 -9 15 -9 8 0 15 -7 15 -15 0 -8 -8 -15 -17 -15
-13 0 -14 -3 -5 -12 9 -9 15 -9 23 -1 9 9 16 9 30 0 25 -16 37 0 13 18 -19 14
-18 15 4 21 38 11 24 22 -28 22 -27 0 -50 -4 -50 -9z"/>
<path d="M515 1360 c-8 -13 -1 -24 14 -19 6 3 7 10 2 18 -6 10 -10 10 -16 1z"/>
<path d="M1465 1360 c-8 -13 -1 -24 14 -19 6 3 7 10 2 18 -6 10 -10 10 -16 1z"/>
<path d="M990 1330 c0 -5 5 -10 10 -10 6 0 10 5 10 10 0 6 -4 10 -10 10 -5 0
-10 -4 -10 -10z"/>
<path d="M490 1310 c0 -5 20 -10 45 -10 25 0 45 5 45 10 0 6 -20 10 -45 10
-25 0 -45 -4 -45 -10z"/>
<path d="M818 1300 c-22 -21 -22 -27 -3 -27 8 0 15 6 15 13 0 7 5 14 12 16 7
3 8 7 3 10 -6 3 -18 -2 -27 -12z"/>
<path d="M1145 1310 c-3 -5 -1 -10 4 -10 6 0 11 5 11 10 0 6 -2 10 -4 10 -3 0
-8 -4 -11 -10z"/>
<path d="M1420 1310 c0 -5 21 -10 46 -10 27 0 43 4 39 10 -3 6 -24 10 -46 10
-21 0 -39 -4 -39 -10z"/>
<path d="M690 1286 c-18 -23 -8 -61 18 -64 17 -3 22 1 21 20 0 13 -3 17 -6 11
-7 -18 -23 -16 -23 2 0 22 27 30 46 14 10 -8 13 -21 9 -36 -6 -26 9 -32 19 -7
9 25 7 33 -14 54 -24 24 -53 26 -70 6z"/>
<path d="M1167 1293 c-11 -11 -8 -20 8 -20 8 0 15 6 15 14 0 14 -12 17 -23 6z"/>
<path d="M1242 1284 c-23 -16 -28 -65 -7 -64 6 1 9 9 7 19 -3 22 23 45 43 37
24 -9 19 -39 -5 -31 -23 7 -28 -13 -5 -21 18 -7 45 12 45 32 0 16 -27 44 -43
44 -7 0 -23 -7 -35 -16z"/>
<path d="M874 1252 c-6 -4 -17 -20 -25 -37 -9 -19 -22 -29 -33 -28 -17 1 -17
0 -3 -14 22 -22 43 -10 64 34 9 21 19 41 21 46 5 9 -10 9 -24 -1z"/>
<path d="M460 1233 c-8 -4 -46 -29 -83 -57 l-68 -51 45 -42 c37 -35 52 -43 83
-43 21 0 45 5 53 10 11 7 7 10 -17 10 -34 0 -102 53 -83 65 5 3 17 -6 26 -20
9 -14 25 -25 35 -25 17 0 17 2 -3 40 -17 32 -19 43 -9 53 9 9 14 9 20 -2 5 -8
7 -20 4 -28 -6 -15 22 -63 37 -63 6 0 10 9 10 19 0 11 11 33 25 49 15 18 25
42 25 61 0 30 -1 31 -42 30 -24 0 -50 -3 -58 -6z m60 -47 c0 -21 -21 -31 -30
-15 -5 7 -6 17 -4 21 9 14 34 9 34 -6z"/>
<path d="M900 1220 c-11 -11 -20 -26 -20 -33 0 -18 32 -47 52 -47 17 0 48 31
48 48 0 15 -36 52 -50 52 -5 0 -19 -9 -30 -20z"/>
<path d="M1057 1234 c-13 -13 -7 -19 18 -19 14 0 24 5 22 10 -4 12 -31 18 -40
9z"/>
<path d="M1141 1222 c-11 -21 3 -52 25 -52 14 0 14 2 0 16 -22 21 -20 33 7 44
l22 9 -22 0 c-12 1 -27 -7 -32 -17z"/>
<path d="M1440 1206 c0 -18 7 -39 14 -46 8 -6 20 -26 25 -43 9 -26 17 -32 43
-35 26 -1 38 4 55 25 12 15 25 24 29 20 14 -14 -55 -67 -88 -67 -29 -1 -31 -2
-14 -11 10 -6 39 -9 63 -6 37 4 52 12 83 46 21 23 34 41 29 41 -5 0 -17 8 -27
18 -17 16 -45 38 -101 74 -14 10 -45 18 -68 18 -42 0 -43 -1 -43 -34z m70 -20
c0 -20 -19 -31 -32 -18 -6 6 -7 15 -4 21 10 16 36 13 36 -3z m55 -15 c6 -10
-35 -85 -42 -77 -3 2 0 13 6 24 6 11 8 22 4 25 -8 9 4 37 16 37 5 0 12 -4 16
-9z"/>
<path d="M1241 1174 c-31 -29 -26 -69 9 -68 17 0 25 5 24 17 -1 9 2 17 7 17 5
0 9 -7 9 -15 0 -8 5 -15 10 -15 19 0 10 46 -13 66 -23 20 -23 20 -46 -2z m19
-38 c0 -3 -4 -8 -10 -11 -5 -3 -10 -1 -10 4 0 6 5 11 10 11 6 0 10 -2 10 -4z"/>
<path d="M702 1170 c-12 -12 -22 -30 -22 -40 0 -25 30 -27 31 -2 0 12 3 10 11
-8 l11 -25 6 25 7 25 6 -24 c8 -26 28 -20 28 9 0 18 -35 60 -50 60 -3 0 -16
-9 -28 -20z"/>
<path d="M560 1152 c-33 -33 -45 -70 -36 -108 5 -18 12 -24 22 -20 9 3 27 6
40 6 15 0 24 6 24 15 0 10 -10 15 -30 15 -23 0 -30 5 -30 19 0 34 42 72 80 74
47 3 45 21 -3 25 -30 3 -43 -2 -67 -26z"/>
<path d="M1337 1173 c-13 -12 -7 -25 8 -19 21 8 74 -13 85 -34 6 -10 10 -28
10 -39 0 -17 -6 -21 -30 -21 -20 0 -30 -5 -30 -15 0 -10 10 -15 29 -15 16 0
36 -3 45 -6 13 -5 16 2 16 41 0 40 -5 52 -34 81 -32 32 -81 46 -99 27z"/>
<path d="M1126 1152 c-4 -7 -5 -16 -2 -19 3 -4 -1 -15 -11 -25 -15 -17 -14
-18 23 -18 33 1 37 2 22 13 -9 7 -18 24 -20 37 -2 18 -5 21 -12 12z"/>
<path d="M1189 1110 c-7 -35 -4 -48 7 -38 3 4 4 21 2 40 l-3 33 -6 -35z"/>
<path d="M799 1128 c-7 -15 -6 -58 2 -58 5 0 9 14 9 30 0 25 -6 39 -11 28z"/>
<path d="M862 1114 c-51 -36 -67 -113 -32 -157 17 -21 31 -27 73 -29 l52 -3
-2 -47 c-2 -27 1 -48 5 -48 13 0 54 95 50 116 -2 15 -13 20 -53 22 -61 4 -77
16 -73 56 4 40 48 67 78 48 27 -16 123 -16 118 1 -3 6 -22 14 -44 17 -22 3
-51 13 -64 23 -30 21 -79 22 -108 1z"/>
<path d="M580 1105 c0 -8 5 -15 10 -15 6 0 10 7 10 15 0 8 -4 15 -10 15 -5 0
-10 -7 -10 -15z"/>
<path d="M624 1098 c5 -34 36 -36 36 -4 0 19 -5 26 -20 26 -15 0 -19 -6 -16
-22z"/>
<path d="M1330 1095 c0 -18 5 -25 20 -25 15 0 20 7 20 25 0 18 -5 25 -20 25
-15 0 -20 -7 -20 -25z"/>
<path d="M1396 1113 c-11 -11 -6 -23 9 -23 8 0 15 4 15 9 0 13 -16 22 -24 14z"/>
<path d="M685 1080 c3 -5 24 -10 45 -10 21 0 42 5 45 10 4 6 -13 10 -45 10
-32 0 -49 -4 -45 -10z"/>
<path d="M1220 1080 c0 -5 20 -10 45 -10 25 0 45 5 45 10 0 6 -20 10 -45 10
-25 0 -45 -4 -45 -10z"/>
<path d="M1112 1045 c7 -16 19 -25 35 -25 26 0 27 3 13 31 -6 11 -21 19 -35
19 -23 0 -24 -2 -13 -25z"/>
<path d="M637 1053 c-4 -3 -7 -26 -7 -50 0 -32 4 -43 15 -43 11 0 15 12 15 50
0 46 -7 60 -23 43z"/>
<path d="M681 1013 c0 -41 2 -45 11 -26 14 28 47 36 75 17 21 -13 23 -13 23 5
0 11 3 26 6 35 5 14 -3 16 -55 16 l-61 0 1 -47z"/>
<path d="M1190 1018 c0 -36 2 -40 13 -24 18 24 76 25 93 1 13 -17 14 -15 14
23 l0 42 -60 0 -60 0 0 -42z"/>
<path d="M1337 1053 c-4 -3 -7 -26 -7 -50 0 -32 4 -43 15 -43 11 0 15 12 15
50 0 46 -7 60 -23 43z"/>
<path d="M483 1027 c-27 -12 -29 -25 -7 -34 19 -7 37 9 32 30 -2 11 -8 12 -25
4z"/>
<path d="M1065 1033 c14 -4 38 -41 78 -123 62 -126 82 -158 91 -149 4 3 -26
67 -66 142 -65 121 -76 136 -98 135 -20 -1 -21 -2 -5 -5z"/>
<path d="M1486 1023 c-7 -17 9 -33 32 -33 19 0 14 28 -7 39 -15 8 -20 7 -25
-6z"/>
<path d="M412 1008 c6 -18 28 -21 28 -4 0 9 -7 16 -16 16 -9 0 -14 -5 -12 -12z"/>
<path d="M1550 1005 c0 -17 2 -18 24 -9 23 9 20 24 -4 24 -11 0 -20 -7 -20
-15z"/>
<path d="M521 984 c-34 -28 -53 -82 -44 -125 7 -38 43 -41 43 -4 0 40 26 81
60 95 21 9 30 19 30 36 0 20 -5 24 -29 24 -17 0 -42 -11 -60 -26z"/>
<path d="M900 1000 c0 -5 19 -10 43 -10 59 0 91 -24 83 -61 -5 -25 -3 -29 18
-29 25 0 56 28 56 51 0 9 -9 25 -20 37 -18 19 -31 22 -100 22 -47 0 -80 -4
-80 -10z m180 -50 c0 -5 -7 -10 -15 -10 -8 0 -15 5 -15 10 0 6 7 10 15 10 8 0
15 -4 15 -10z"/>
<path d="M1380 985 c0 -15 6 -25 15 -25 8 0 29 -13 47 -29 25 -22 32 -36 32
-65 0 -31 3 -36 21 -34 15 2 21 12 23 42 6 75 -41 136 -104 136 -30 0 -34 -3
-34 -25z"/>
<path d="M724 992 c-6 -4 -13 -15 -17 -24 -5 -15 -1 -18 28 -18 36 0 46 15 23
38 -14 14 -19 14 -34 4z"/>
<path d="M1139 983 c27 -47 31 -49 31 -15 0 26 -4 32 -20 32 -17 0 -19 -3 -11
-17z"/>
<path d="M1228 989 c-30 -17 -20 -36 22 -47 38 -9 40 -9 40 12 0 39 -28 55
-62 35z"/>
<path d="M415 954 c13 -58 27 -94 35 -94 5 0 7 6 4 13 -3 8 1 33 9 55 14 39
13 42 -3 42 -10 0 -26 3 -35 6 -13 5 -15 2 -10 -22z"/>
<path d="M1547 973 c-22 -4 -27 -8 -21 -21 4 -9 10 -37 13 -62 l6 -44 12 27
c13 27 29 108 22 106 -2 -1 -17 -4 -32 -6z"/>
<path d="M594 940 c-58 -23 -70 -95 -24 -142 23 -23 30 -39 30 -69 0 -21 5
-39 10 -39 6 0 10 21 10 46 0 37 -5 50 -25 66 -54 42 -16 130 50 114 18 -5 25
-2 25 8 0 24 -37 32 -76 16z"/>
<path d="M1332 939 c-34 -13 -17 -31 23 -23 62 11 100 -61 55 -106 -11 -11
-24 -20 -29 -20 -4 0 -7 -21 -5 -46 4 -52 14 -73 14 -30 0 33 21 75 49 98 12
10 21 27 21 38 0 33 -26 75 -55 88 -30 14 -41 14 -73 1z"/>
<path d="M674 899 c-15 -30 -15 -32 2 -24 11 5 44 11 74 13 50 4 69 13 70 35
0 4 -29 7 -65 7 -62 0 -65 -1 -81 -31z"/>
<path d="M1102 918 c-7 -7 -12 -20 -12 -30 0 -35 -45 -68 -92 -68 -60 0 -75
11 -60 44 11 26 11 26 -33 26 -42 0 -46 -2 -65 -40 -11 -21 -20 -41 -20 -43 0
-3 56 -4 125 -3 136 2 151 8 175 66 14 34 2 68 -18 48z m-204 -70 c-6 -18 -28
-21 -28 -4 0 9 7 16 16 16 9 0 14 -5 12 -12z"/>
<path d="M1207 923 c-46 -7 -25 -27 34 -34 63 -7 90 -21 113 -60 20 -33 43
-29 53 9 8 32 -7 56 -38 60 -22 2 -23 1 -6 -11 9 -8 17 -17 17 -21 0 -14 -25
-4 -57 24 -18 17 -40 30 -48 30 -7 0 -19 2 -27 3 -7 2 -26 2 -41 0z"/>
<path d="M815 869 c-15 -28 -24 -56 -22 -62 2 -7 15 12 28 41 l23 52 48 0 c26
0 48 5 48 10 0 6 -22 10 -50 10 l-50 0 -25 -51z"/>
<path d="M589 879 c-8 -16 -8 -28 0 -45 13 -29 37 -31 51 -4 9 16 8 22 -5 26
-19 8 -20 24 0 24 8 0 15 5 15 10 0 19 -49 10 -61 -11z"/>
<path d="M698 864 c-36 -19 -58 -63 -58 -113 0 -31 7 -49 31 -76 17 -19 27
-35 23 -35 -5 0 -2 -5 6 -10 18 -12 107 -12 135 0 18 8 18 9 -4 9 l-25 1 32
33 c18 18 32 36 32 40 0 13 -44 7 -64 -8 -32 -24 -81 -19 -105 11 -12 15 -21
34 -21 44 0 31 38 69 73 72 24 2 33 8 35 26 3 19 -1 22 -30 22 -18 -1 -45 -7
-60 -16z"/>
<path d="M1000 860 c-10 -18 -8 -20 19 -20 20 0 34 7 41 20 10 18 8 20 -19 20
-20 0 -34 -7 -41 -20z"/>
<path d="M1213 873 c-22 -8 9 -43 39 -43 52 0 78 -80 38 -120 -39 -39 -104
-21 -124 34 -6 19 -7 19 -22 -2 -19 -27 -11 -55 23 -82 22 -17 23 -20 7 -20
-16 0 -17 -2 -4 -10 8 -5 44 -10 80 -10 36 0 72 5 80 10 12 7 8 10 -15 10
l-29 0 22 16 c29 20 52 65 52 101 0 71 -88 140 -147 116z"/>
<path d="M1099 795 c-19 -41 -32 -75 -27 -75 50 0 110 91 85 130 -6 11 -14 20
-17 20 -3 0 -22 -34 -41 -75z"/>
<path d="M485 781 c20 -39 32 -45 38 -21 3 11 11 20 18 20 10 0 10 -3 1 -12
-8 -8 -9 -15 -1 -25 9 -10 8 -13 -2 -13 -7 0 -3 -10 11 -25 32 -34 38 -32 34
18 -4 50 -39 87 -85 87 -29 0 -29 0 -14 -29z"/>
<path d="M1435 785 c-19 -18 -25 -35 -25 -66 0 -41 0 -41 23 -26 16 10 22 24
22 50 0 19 3 33 7 31 5 -3 8 -12 8 -20 0 -23 14 -16 38 21 l22 35 -35 0 c-25
0 -44 -8 -60 -25z"/>
<path d="M1249 781 c18 -33 -21 -45 -45 -13 -12 15 -13 15 -14 1 0 -25 35 -52
59 -44 25 8 37 41 21 60 -18 22 -33 18 -21 -4z"/>
<path d="M710 780 c0 -13 300 -13 320 0 10 6 -41 10 -152 10 -106 0 -168 -4
-168 -10z"/>
<path d="M1045 770 c-4 -6 -72 -10 -171 -10 -139 0 -164 -2 -164 -15 0 -13 25
-15 163 -15 146 0 166 2 180 18 10 10 17 22 17 25 0 11 -18 8 -25 -3z"/>
<path d="M936 616 c4 -12 9 -45 11 -73 l5 -53 -36 0 c-28 0 -36 4 -36 18 0 37
-29 62 -73 62 l-41 0 24 -17 c36 -24 41 -34 38 -72 -4 -48 22 -63 55 -33 43
41 81 -3 59 -68 -11 -30 -11 -30 25 -30 28 0 34 3 29 16 -3 9 -6 71 -6 139 l0
123 -31 4 c-27 4 -30 3 -23 -16z"/>
<path d="M1026 615 c12 -36 16 -204 5 -235 -10 -30 -10 -30 29 -30 38 0 38 0
28 28 -16 43 -3 82 27 82 34 0 50 -32 36 -72 -6 -17 -11 -33 -11 -34 0 -2 19
-4 41 -4 32 0 39 3 32 13 -6 6 -13 37 -16 68 -5 56 -29 117 -51 131 -19 13
-46 9 -46 -8 0 -9 10 -24 23 -34 25 -21 23 -24 -15 -34 l-28 -6 0 77 0 78 -31
0 c-26 0 -29 -3 -23 -20z"/>
<path d="M362 618 c-18 -18 -14 -46 7 -58 24 -12 41 7 20 22 -11 7 -10 8 4 6
14 -2 30 -34 61 -118 24 -63 50 -128 59 -145 l15 -30 10 25 c6 14 20 50 32 80
27 66 80 216 80 224 0 3 -16 6 -35 6 -38 0 -40 -2 -25 -30 7 -14 2 -40 -24
-106 l-34 -88 -14 34 c-8 19 -25 65 -37 103 -13 38 -31 72 -41 77 -25 14 -63
13 -78 -2z"/>
<path d="M664 555 c3 -8 -8 -43 -24 -77 -35 -73 -37 -89 -12 -111 14 -13 38
-17 96 -17 70 0 77 2 72 18 -4 9 -24 59 -44 109 -35 87 -39 93 -66 93 -21 0
-27 -4 -22 -15z m37 -76 c7 -13 3 -18 -21 -21 -16 -2 -27 -1 -25 2 3 4 10 20
16 36 8 20 13 24 17 14 2 -8 8 -22 13 -31z m20 -55 c17 -21 0 -49 -32 -49 -27
0 -37 28 -19 50 16 19 34 19 51 -1z"/>
<path d="M1224 541 c23 -24 26 -35 26 -97 0 -41 -5 -75 -12 -82 -9 -9 -4 -12
23 -12 l34 0 -3 75 c-4 85 11 122 35 89 16 -21 17 -117 3 -145 -10 -17 -7 -19
22 -19 l33 0 -6 95 c-3 52 -11 101 -18 109 -8 10 -34 14 -88 14 l-75 1 26 -28z"/>
<path d="M1447 559 c8 -8 2 -31 -24 -84 -29 -61 -33 -77 -23 -95 16 -31 49
-39 122 -32 l65 7 -45 108 c-43 103 -46 107 -75 107 -23 0 -28 -3 -20 -11z
m43 -85 c0 -6 -12 -14 -26 -17 -20 -4 -24 -1 -18 12 3 9 9 25 12 35 5 18 6 18
19 1 7 -11 13 -24 13 -31z m15 -69 c0 -23 -5 -31 -21 -33 -30 -4 -48 21 -34
48 18 33 55 23 55 -15z"/>
<path d="M325 485 l-20 -20 21 -21 21 -20 20 22 c19 21 19 22 -1 41 -21 18
-21 18 -41 -2z"/>
<path d="M1625 485 l-21 -20 21 -20 20 -20 21 21 20 21 -20 19 c-21 19 -21 19
-41 -1z"/>
<path d="M828 385 c-4 -35 -4 -35 36 -35 31 0 37 3 28 12 -7 7 -12 22 -12 35
0 18 -6 23 -24 23 -20 0 -25 -6 -28 -35z"/>
<path d="M452 295 c10 -11 48 -14 48 -4 0 5 -12 9 -27 9 -14 0 -24 -2 -21 -5z"/>
<path d="M571 295 c8 -7 959 -9 966 -1 3 3 -213 6 -482 6 -269 0 -486 -2 -484
-5z"/>
<path d="M450 220 c0 -17 2 -19 14 -8 14 13 12 28 -5 28 -5 0 -9 -9 -9 -20z"/>
<path d="M490 220 c0 -11 4 -20 8 -20 4 0 8 9 8 20 0 11 -4 20 -8 20 -4 0 -8
-9 -8 -20z"/>
<path d="M520 220 c0 -11 4 -20 8 -20 4 0 8 9 8 20 0 11 -4 20 -8 20 -4 0 -8
-9 -8 -20z"/>
<path d="M560 226 c0 -8 5 -18 10 -21 6 -3 10 3 10 14 0 12 -4 21 -10 21 -5 0
-10 -6 -10 -14z"/>
<path d="M617 220 c3 -11 7 -20 9 -20 2 0 4 9 4 20 0 11 -4 20 -9 20 -5 0 -7
-9 -4 -20z"/>
<path d="M644 229 c-10 -17 13 -36 27 -22 12 12 4 33 -11 33 -5 0 -12 -5 -16
-11z m26 -9 c0 -5 -4 -10 -10 -10 -5 0 -10 5 -10 10 0 6 5 10 10 10 6 0 10 -4
10 -10z"/>
<path d="M711 218 c1 -18 2 -19 6 -5 2 9 9 14 15 11 7 -4 8 -2 4 4 -12 20 -26
13 -25 -10z"/>
<path d="M750 220 c0 -11 4 -20 8 -20 4 0 8 9 8 20 0 11 -4 20 -8 20 -4 0 -8
-9 -8 -20z"/>
<path d="M780 220 c0 -11 4 -20 8 -20 4 0 8 9 9 20 1 11 -2 20 -8 20 -5 0 -9
-9 -9 -20z"/>
<path d="M824 225 c4 -24 16 -30 16 -7 0 12 -4 22 -9 22 -5 0 -8 -7 -7 -15z"/>
<path d="M905 230 c-4 -6 -11 -8 -16 -5 -5 4 -9 2 -9 -3 0 -5 9 -12 20 -15 15
-4 20 0 20 14 0 21 -6 24 -15 9z"/>
<path d="M934 228 c-4 -6 -1 -15 6 -21 9 -9 15 -8 25 6 13 18 13 18 17 0 3
-16 5 -15 10 4 5 19 2 21 -23 21 -17 -1 -32 -5 -35 -10z m26 -8 c0 -5 -4 -10
-10 -10 -5 0 -10 5 -10 10 0 6 5 10 10 10 6 0 10 -4 10 -10z"/>
<path d="M1014 229 c-10 -17 13 -36 27 -22 12 12 4 33 -11 33 -5 0 -12 -5 -16
-11z m26 -9 c0 -5 -4 -10 -10 -10 -5 0 -10 5 -10 10 0 6 5 10 10 10 6 0 10 -4
10 -10z"/>
<path d="M1060 218 c0 -12 3 -18 7 -14 11 10 12 36 2 36 -5 0 -9 -10 -9 -22z"/>
<path d="M1100 220 c0 -11 5 -20 10 -20 6 0 10 9 10 20 0 11 -4 20 -10 20 -5
0 -10 -9 -10 -20z"/>
<path d="M1160 222 c0 -10 6 -19 14 -19 8 0 11 8 8 19 -2 10 -8 18 -13 18 -5
0 -9 -8 -9 -18z"/>
<path d="M1200 220 c0 -11 4 -20 8 -20 4 0 8 9 9 20 1 11 -2 20 -8 20 -5 0 -9
-9 -9 -20z"/>
<path d="M1263 220 c1 -11 5 -20 9 -20 3 0 6 9 5 20 -1 11 -5 20 -9 20 -3 0
-6 -9 -5 -20z"/>
<path d="M1313 233 c-7 -2 -13 -9 -13 -14 0 -6 4 -8 9 -5 5 4 12 0 14 -6 3 -7
6 -3 6 10 1 12 0 22 -1 21 -2 0 -9 -3 -15 -6z"/>
<path d="M1347 227 c-3 -9 1 -18 9 -21 16 -6 18 2 5 22 -7 11 -9 11 -14 -1z"/>
<path d="M1380 223 c0 -11 6 -20 14 -20 16 0 14 29 -2 35 -7 2 -12 -5 -12 -15z"/>
<path d="M1422 220 c0 -14 2 -19 5 -12 2 6 2 18 0 25 -3 6 -5 1 -5 -13z"/>
<path d="M1471 233 c-1 -7 -9 -10 -18 -7 -16 5 -16 4 0 -6 21 -13 32 -8 24 12
-4 9 -6 9 -6 1z"/>
<path d="M1495 230 c-7 -12 2 -30 16 -30 5 0 9 5 9 11 0 5 -4 7 -10 4 -5 -3
-10 -2 -10 4 0 5 6 12 13 14 9 4 9 6 0 6 -6 1 -15 -3 -18 -9z"/>
</g>
</svg>
